#!OML:ASF H:\Terrain\Patient Classification 1\Walking\liu\liu.ASF
:FULLY-SPECIFIED
:DEGREES
259
root 9.710380 16.718201 -0.282263 8.251770 -7.540740 1.041120
lowerback -56.668701 11.526800 -24.044701
upperback -19.522800 16.424200 14.681999
thorax 10.543500 8.291210 29.658001
lowerneck -204.284988 -48.021500 -128.317001
upperneck 187.129990 -57.901402 132.293991
head 101.198997 -21.288799 60.201603
rclavicle -0.000000 -0.000000
rhumerus -459.700989 96.714401 -860.159973
rradius 397.113007
rwrist -217.485992
rhand -319.309021 -246.002991
rfingers 71.250198
rthumb -51.820103 -545.169006
lclavicle -0.000000 -0.000000
lhumerus -367.029999 -85.909203 892.942993
lradius 226.390991
lwrist -20.075100
lhand -94.177307 -223.451996
lfingers 71.250198
lthumb 165.442993 69.694801
rfemur -80.571503 -18.318501 159.294006
rtibia 611.487000
rfoot 54.511902 -89.649696
rtoes -152.345001
lfemur -317.308014 90.422600 -274.201996
ltibia 360.312012
lfoot -122.797005 68.794495
ltoes -1.725470
260
root 9.729450 16.744499 -0.150326 8.113260 -7.435080 1.400670
lowerback -57.393398 9.741460 -27.263802
upperback -18.133101 14.250200 14.312300
thorax 12.453600 7.157410 30.994699
lowerneck -205.981995 -47.481400 -128.229004
upperneck 188.360001 -57.099400 132.382996
head 101.829002 -20.847700 60.397602
rclavicle 0.000000 0.000000
rhumerus -455.049011 88.770798 -853.859009
rradius 395.593994
rwrist -204.610001
rhand -307.832001 -236.593002
rfingers 71.250198
rthumb -40.737900 -536.001038
lclavicle 0.000000 0.000000
lhumerus -358.923981 -94.560898 895.472046
lradius 229.601990
lwrist -12.267700
lhand -102.233002 -223.251984
lfingers 71.250198
lthumb 157.686005 70.525299
rfemur -93.452301 -19.964100 156.808990
rtibia 625.255005
rfoot 37.118401 -99.575996
rtoes -154.958008
lfemur -307.499023 87.664497 -278.407990
ltibia 354.384003
lfoot -124.348999 71.038696
ltoes -17.326700
261
root 9.754940 16.772699 -0.013225 7.978110 -7.272360 1.396560
lowerback -58.306099 8.325521 -25.439501
upperback -16.541899 12.284699 14.307700
thorax 14.786500 6.113420 29.876400
lowerneck -207.160004 -46.904102 -125.667999
upperneck 188.393997 -56.468002 130.341995
head 101.810997 -20.552002 59.285797
rclavicle 0.000000 0.000000
rhumerus -454.845001 87.448196 -852.218994
rradius 399.436005
rwrist -205.350006
rhand -306.256012 -228.089005
rfingers 71.250198
rthumb -39.216301 -527.526001
lclavicle 0.000000 0.000000
lhumerus -349.407990 -101.526001 895.578979
lradius 229.162994
lwrist -8.977520
lhand -109.628998 -230.514999
lfingers 71.250198
lthumb 150.563004 63.810303
rfemur -104.933006 -21.136600 157.598999
rtibia 636.248047
rfoot 17.217899 -105.221008
rtoes -136.556000
lfemur -297.208008 85.354301 -278.852997
ltibia 349.481018
lfoot -127.439003 72.665604
ltoes -24.920198
262
root 9.778770 16.812901 0.121056 7.874420 -7.148840 0.933813
lowerback -57.672401 7.956429 -19.108799
upperback -15.721701 11.399799 15.028600
thorax 15.455299 5.659870 26.991199
lowerneck -206.791000 -46.198200 -122.015999
upperneck 189.291992 -56.197899 127.981995
head 101.824997 -20.428101 57.839298
rclavicle -0.000000 -0.000000
rhumerus -457.476013 89.162102 -853.226013
rradius 405.514984
rwrist -213.509995
rhand -309.782990 -228.691010
rfingers 71.250198
rthumb -42.621998 -528.062012
lclavicle -0.000000 -0.000000
lhumerus -339.945007 -105.318001 892.699951
lradius 230.104996
lwrist -12.906899
lhand -109.216003 -231.916016
lfingers 71.250198
lthumb 150.959991 62.379196
rfemur -116.283997 -20.530800 164.539001
rtibia 644.450989
rfoot 3.215380 -107.153000
rtoes -147.516998
lfemur -287.382996 84.499802 -273.897003
ltibia 344.695007
lfoot -130.115005 73.298599
ltoes -27.531700
